<?xml version="1.0" standalone="no"?>
<!DOCTYPE svg PUBLIC "-//W3C//DTD SVG 20010904//EN"
 "http://www.w3.org/TR/2001/REC-SVG-20010904/DTD/svg10.dtd">
<svg version="1.0" xmlns="http://www.w3.org/2000/svg"
 width="640.000000pt" height="1280.000000pt" viewBox="0 0 640.000000 1280.000000"
 preserveAspectRatio="xMidYMid meet">
<metadata>
Created by potrace 1.15, written by Peter Selinger 2001-2017
</metadata>
<g transform="translate(0.000000,1280.000000) scale(0.100000,-0.100000)"
fill="#f44336" stroke="none">
<path d="M5800 12794 c-14 -2 -59 -9 -100 -15 -304 -42 -889 -197 -1255 -331
-202 -74 -670 -301 -1356 -657 l-197 -101 -110 -14 c-114 -14 -192 -45 -206
-81 -3 -9 38 -126 92 -263 l97 -247 73 -3 73 -3 -3 -122 -3 -122 -72 -3 c-68
-3 -72 -2 -75 20 l-3 23 -310 3 c-267 2 -310 0 -318 -13 -5 -10 -23 -15 -50
-15 -69 0 -245 -28 -352 -56 -697 -179 -1292 -761 -1548 -1514 -166 -491 -192
-1020 -77 -1625 5 -27 23 -124 40 -215 69 -372 161 -800 250 -1170 56 -235 99
-425 115 -510 23 -128 44 -314 37 -322 -4 -4 -23 -8 -42 -10 -31 -3 -35 -6
-38 -36 -2 -22 2 -34 12 -38 12 -4 16 -20 16 -54 0 -34 -4 -50 -16 -54 -10 -4
-14 -16 -12 -38 3 -32 5 -33 51 -36 41 -3 47 -6 47 -25 0 -12 -9 -28 -20 -35
-19 -11 -20 -19 -14 -75 4 -34 13 -66 19 -72 9 -7 14 -76 19 -236 5 -196 4
-228 -9 -233 -11 -4 -15 -21 -15 -63 0 -63 5 -76 33 -86 16 -6 18 -15 13 -69
-4 -35 -11 -173 -16 -308 -15 -359 -28 -643 -39 -846 -6 -98 -15 -280 -21
-404 -5 -124 -12 -241 -15 -261 l-5 -36 48 -6 c26 -4 115 -11 199 -17 141 -11
269 -5 508 23 20 2 20 -4 20 -533 0 -462 2 -542 16 -585 42 -134 94 -214 233
-362 53 -57 109 -121 126 -144 l30 -42 0 -337 c0 -327 1 -338 21 -364 46 -58
20 -56 739 -56 586 0 660 2 660 15 0 29 48 111 87 149 21 21 61 50 88 64 44
24 61 27 145 27 87 0 100 -3 148 -30 69 -37 137 -113 159 -176 l18 -49 653 0
c708 0 696 -1 740 55 22 27 22 34 22 362 0 274 3 339 15 362 8 16 60 78 116
137 194 209 245 299 269 474 8 60 5 570 -19 2955 -7 737 -7 771 11 788 16 16
18 36 18 167 0 138 -2 151 -21 169 -20 19 -21 22 -29 1317 -6 845 -13 1327
-20 1379 -53 378 -203 680 -467 936 -194 189 -387 311 -673 426 -158 63 -210
94 -277 166 -82 87 -123 195 -123 325 0 65 -2 74 -20 79 -19 5 -20 14 -20 132
0 105 4 137 22 186 31 85 31 253 0 345 -18 53 -22 88 -22 194 l0 129 438 -6
c417 -5 540 -13 771 -47 399 -58 803 -208 1110 -413 l73 -49 34 33 34 34 -21
70 c-32 105 -53 139 -116 188 -287 218 -713 372 -1293 466 -237 38 -428 57
-740 71 -113 5 -206 13 -208 18 -1 4 -23 44 -48 88 -27 47 -42 83 -37 90 50
69 70 108 89 182 27 101 36 111 174 197 446 275 1196 537 1808 631 17 3 32 9
32 15 0 22 -30 78 -60 112 -29 33 -37 37 -79 36 -25 -1 -57 -3 -71 -5z m-2892
-2566 c2 -109 1 -118 -18 -128 -17 -9 -20 -21 -20 -76 0 -226 -127 -394 -362
-479 -95 -34 -295 -131 -383 -185 -415 -255 -685 -623 -774 -1060 -36 -173
-41 -305 -41 -1061 0 -1077 -10 -1759 -26 -1759 -22 0 -44 -30 -44 -61 0 -24
-4 -29 -25 -29 -18 0 -25 5 -25 20 0 16 -8 19 -57 22 l-57 3 -13 115 c-25 239
-45 343 -143 760 -140 596 -190 828 -256 1185 -19 105 -41 222 -49 260 -133
657 -49 1263 243 1750 72 121 177 253 291 365 263 260 551 406 886 450 69 9
82 8 91 -5 10 -13 52 -15 320 -13 l309 3 3 23 c3 22 7 23 75 20 l72 -3 3 -117z
m-1668 -5042 c0 -38 10 -56 33 -56 l20 0 -6 -832 c-7 -758 -17 -1346 -24
-1308 -1 8 -7 80 -13 160 -6 80 -15 199 -21 265 -10 130 -23 309 -39 518 -5
72 -14 197 -20 276 -10 125 -9 145 4 160 24 26 21 116 -3 140 -17 17 -19 39
-22 245 -3 174 -1 227 8 231 17 6 17 127 1 143 -7 7 -25 12 -40 12 -18 0 -28
5 -28 15 0 11 12 15 46 15 37 0 47 4 51 20 3 13 14 20 29 20 19 0 24 -5 24
-24z"/>
</g>
</svg>
